<?xml version="1.0" standalone="no"?>
<!DOCTYPE svg PUBLIC "-//W3C//DTD SVG 20010904//EN"
 "http://www.w3.org/TR/2001/REC-SVG-20010904/DTD/svg10.dtd">
<svg version="1.0" xmlns="http://www.w3.org/2000/svg"
 width="1024.000000pt" height="1024.000000pt" viewBox="0 0 1024.000000 1024.000000"
 preserveAspectRatio="xMidYMid meet">

<g transform="translate(0.000000,1024.000000) scale(0.100000,-0.100000)"
fill="#000000" stroke="none">
<path d="M0 5120 l0 -5120 5120 0 5120 0 0 5120 0 5120 -5120 0 -5120 0 0
-5120z m6750 2720 c0 -81 -2 -89 -20 -95 -39 -12 -50 11 -50 100 0 45 2 84 5
87 3 2 18 3 35 0 l30 -4 0 -88z m-376 -102 l56 -63 -26 -25 -25 -25 -65 69
-64 68 23 19 c12 10 27 18 34 19 6 0 36 -28 67 -62z m774 39 l22 -23 -68 -67
c-65 -65 -68 -66 -90 -51 -12 8 -22 20 -22 27 0 12 119 137 130 137 4 0 16
-10 28 -23z m-356 -128 c112 -24 228 -111 279 -211 26 -51 49 -165 43 -214
-13 -107 -52 -188 -141 -285 -67 -74 -87 -110 -118 -212 -15 -48 -31 -89 -35
-92 -7 -5 -94 4 -280 29 -58 8 -109 12 -113 9 -5 -3 -6 -16 -3 -28 3 -13 1
-27 -5 -31 -6 -4 -9 -19 -5 -37 3 -16 1 -35 -4 -42 -14 -16 -3 -43 21 -50 10
-3 24 -18 31 -32 30 -60 165 -88 211 -45 13 12 33 22 46 22 12 0 34 12 49 27
l26 26 -39 13 -40 12 37 1 c28 1 38 6 43 22 9 26 7 28 -46 38 l-44 9 51 1 c40
1 55 -3 70 -20 10 -12 69 -67 129 -122 61 -55 143 -131 183 -169 l73 -69 -3
-1642 -3 -1642 -24 -48 c-32 -65 -110 -133 -174 -152 -44 -13 -279 -15 -1888
-15 -1807 0 -1839 0 -1891 20 -70 26 -117 66 -153 131 l-30 54 0 2225 0 2225
33 51 c33 53 70 86 132 120 34 18 79 19 1283 22 l1247 2 207 -187 c255 -232
359 -323 370 -323 4 0 1 5 -7 10 -10 6 -11 10 -2 10 6 0 12 5 12 11 0 5 -3 8
-7 6 -5 -3 -9 7 -9 21 -1 15 -8 57 -15 94 -15 76 -4 179 26 242 25 52 109 141
162 172 85 50 203 66 315 43z m608 -274 l0 -35 -99 0 c-109 0 -132 10 -111 49
10 19 20 21 110 21 l100 0 0 -35z m-907 -762 c-7 -2 -21 -2 -30 0 -10 3 -4 5
12 5 17 0 24 -2 18 -5z m54 -9 c-3 -3 -12 -4 -19 -1 -8 3 -5 6 6 6 11 1 17 -2
13 -5z m-64 -71 c-7 -2 -21 -2 -30 0 -10 3 -4 5 12 5 17 0 24 -2 18 -5z"/>
<path d="M6342 7003 c25 -27 30 -29 22 -8 -4 8 -10 15 -16 15 -5 0 -7 4 -4 8
3 5 -2 9 -10 9 -11 0 -9 -6 8 -24z"/>
<path d="M5146 6624 c-3 -8 -6 -372 -6 -808 0 -603 3 -795 12 -804 18 -18 292
-17 307 2 8 10 10 231 9 817 l-3 804 -156 3 c-136 2 -157 0 -163 -14z"/>
<path d="M4563 6163 c-10 -4 -13 -129 -13 -578 0 -513 2 -573 16 -579 31 -12
362 -7 370 6 8 13 6 1137 -2 1150 -5 8 -350 10 -371 1z"/>
<path d="M3963 5165 c0 -71 4 -138 9 -147 8 -16 27 -18 173 -18 90 0 170 3
179 6 9 3 16 16 15 28 l0 21 -16 -22 c-14 -21 -23 -23 -92 -21 -59 1 -65 2
-26 5 46 4 91 23 53 23 -23 0 -40 24 -27 37 6 6 18 9 25 6 8 -3 20 0 28 6 7 6
20 9 28 6 11 -5 15 5 17 45 2 44 0 50 -19 50 -11 0 -20 -6 -20 -12 0 -10 -2
-10 -8 -1 -4 6 -20 14 -37 17 -16 3 -43 9 -59 12 -23 6 -27 4 -21 -7 7 -11 5
-11 -10 1 -11 9 -16 10 -11 3 4 -7 3 -13 -1 -13 -5 0 -15 6 -22 13 -7 6 -12 8
-11 2 4 -20 0 -35 -11 -35 -5 0 -7 5 -4 10 3 6 -4 11 -17 11 -13 1 -34 3 -48
4 -14 2 -30 -2 -37 -7 -12 -9 -14 -2 -26 82 -2 14 -4 -33 -4 -105z m204 -20
c0 -8 -4 -12 -9 -9 -5 3 -6 10 -3 15 9 13 12 11 12 -6z m103 5 c0 -5 -2 -10
-4 -10 -3 0 -8 5 -11 10 -3 6 -1 10 4 10 6 0 11 -4 11 -10z m15 -37 c-5 -21
-8 -24 -16 -12 -12 19 -11 32 1 24 6 -3 10 4 11 17 0 13 3 17 6 10 3 -7 2 -25
-2 -39z"/>
<path d="M3673 4724 c-3 -8 -1 -20 5 -26 15 -15 2871 -13 2885 1 5 5 7 17 4
25 -6 14 -148 16 -1447 16 -1299 0 -1441 -2 -1447 -16z"/>
<path d="M4160 3985 c0 -351 1 -375 18 -375 16 0 17 24 17 375 0 351 -1 375
-17 375 -17 0 -18 -24 -18 -375z"/>
<path d="M5751 4313 c-99 -377 -91 -333 -91 -531 l0 -182 28 0 28 0 68 253
c38 138 70 253 71 255 1 1 0 -113 -3 -253 l-5 -255 117 0 116 0 0 375 0 375
-160 0 -159 0 -10 -37z"/>
</g>
</svg>
